# xmcd CD database file
#
# Track frame offsets:
#	150
#	7254
#	26182
#	44851
#	67818
#	85023
#
# Disc length: 1340 seconds
#
# Revision: 0
# Processed by: cddbd v1.5.1PL2 Copyright (c) Steve Scherf et al.
# Submitted via: CDex 1.51
#
DISCID=4c053a06
DTITLE=サディ - The Trend Killer
DYEAR=2006
DGENRE=JPop
TTITLE0=Enter the killing
TTITLE1=under the chaos
TTITLE2=サイコカルチャー
TTITLE3=meranchoria
TTITLE4=CHILDREN OF DESPAIR
TTITLE5=コールドプレイ
EXTD=YEAR: 2006
EXTT0=
EXTT1=
EXTT2=
EXTT3=
EXTT4=
EXTT5=
PLAYORDER=
